Coordinates
version=1
nRows=7
nColumns=40
inDegrees=yes

Units are S.I. units (second, meters, Newtons, ...)
If the header above contains a line with 'inDegrees', this indicates whether rotational values are in degrees (yes) or radians (no).

endheader
time	pelvis_tilt	pelvis_list	pelvis_rotation	pelvis_tx	pelvis_ty	pelvis_tz	hip_flexion_r	hip_adduction_r	hip_rotation_r	knee_angle_r	knee_angle_r_beta	ankle_angle_r	subtalar_angle_r	mtp_angle_r	hip_flexion_l	hip_adduction_l	hip_rotation_l	knee_angle_l	knee_angle_l_beta	ankle_angle_l	subtalar_angle_l	mtp_angle_l	lumbar_extension	lumbar_bending	lumbar_rotation	arm_flex_r	arm_add_r	arm_rot_r	elbow_flex_r	pro_sup_r	wrist_flex_r	wrist_dev_r	arm_flex_l	arm_add_l	arm_rot_l	elbow_flex_l	pro_sup_l	wrist_flex_l	wrist_dev_l
      2.43500000	    -17.09683117	     -3.05422883	     -1.47891448	     -1.14125417	      0.94442518	      0.28368646	     40.66385658	     -0.52149458	    -14.38038705	     39.23044310	      0.68470040	     13.77430605	      0.00000000	      0.00000000	     19.80041125	     -3.43388899	      1.42432523	    112.60558867	      1.96533828	     -9.24347565	      0.00000000	      0.00000000	    -18.56478895	      8.74672405	     -4.39289307	      2.63660378	    -22.24030738	     -6.58213010	     92.09509424	     45.32532665	      0.00000000	      0.00000000	     -8.14070478	    -20.34695816	     -0.15007480	     79.16523585	     42.65327476	      0.00000000	      0.00000000
      2.44000000	    -17.07996235	     -2.65145408	     -2.66220663	     -1.11034916	      0.94299706	      0.28567778	     39.21839180	     -0.19348728	    -13.46446844	     40.52830491	      0.70735236	     15.98765151	      0.00000000	      0.00000000	     22.47405280	     -3.51301811	      0.94744244	    115.46800634	      2.01529689	     -7.91769860	      0.00000000	      0.00000000	    -18.41474301	      7.86859303	     -4.18541138	      7.43139074	    -21.08459242	     -4.30202869	     92.83730230	     45.34416612	      0.00000000	      0.00000000	    -11.07359946	    -19.24713208	     -2.09483270	     75.98659422	     42.43388724	      0.00000000	      0.00000000
      2.44500000	    -17.00447483	     -2.15770821	     -3.85837167	     -1.07949914	      0.94189589	      0.28766193	     37.66179707	     -0.02333310	    -12.42167885	     41.69309650	      0.72768181	     17.94471144	      0.00000000	      0.00000000	     25.17749336	     -3.57175444	      0.45151206	    117.96166595	      2.05881946	     -6.67105386	      0.00000000	      0.00000000	    -18.32487631	      6.85951902	     -3.73931119	     11.78050265	    -19.71689379	     -2.58465785	     93.86837649	     45.38665686	      0.00000000	      0.00000000	    -13.77834705	    -18.24559554	     -3.79325322	     73.08815378	     42.25155200	      0.00000000	      0.00000000
      2.45000000	    -16.84877842	     -1.55586835	     -5.05472076	     -1.04860361	      0.94116937	      0.28960883	     35.96479358	     -0.05327547	    -11.27169400	     42.69159619	      0.74510892	     19.60139991	      0.00000000	      0.00000000	     27.87018745	     -3.58593250	     -0.09676258	    120.04732665	      2.09522111	     -5.47796671	      0.00000000	      0.00000000	    -18.23081843	      5.70343455	     -2.69170827	     15.30964546	    -18.33301698	     -1.93321526	     95.41627814	     45.48844174	      0.00000000	      0.00000000	    -15.85019870	    -17.79123616	     -4.19469020	     70.13358357	     42.05247067	      0.00000000	      0.00000000
      2.45500000	    -16.61570530	     -0.88385118	     -6.20524553	     -1.01759068	      0.94079193	      0.29145872	     34.11173059	     -0.28707359	    -10.09167581	     43.47549797	      0.75879058	     20.95370520	      0.00000000	      0.00000000	     30.54388082	     -3.57410612	     -0.66729471	    121.72395604	      2.12448381	     -4.32173692	      0.00000000	      0.00000000	    -18.21215685	      4.43381675	     -2.01810580	     19.00879715	    -17.02448374	     -0.79730869	     96.81398053	     45.60532383	      0.00000000	      0.00000000	    -18.37818718	    -16.93151729	     -5.75314404	     67.91428928	     41.91522610	      0.00000000	      0.00000000
      2.46000000	    -16.30764932	     -0.14680809	     -7.29709614	     -0.98640298	      0.94073781	      0.29320545	     32.10537394	     -0.73495972	     -8.90887472	     44.02430095	      0.76836900	     21.90367576	      0.00000000	      0.00000000	     33.18655937	     -3.53139843	     -1.27305258	    122.98553455	      2.14650251	     -3.21858159	      0.00000000	      0.00000000	    -18.25853946	      3.04272645	     -1.31156946	     22.33195066	    -15.82929379	      0.08002316	     98.65194132	     45.76857451	      0.00000000	      0.00000000	    -21.13455066	    -16.20258372	     -7.32557527	     66.59984562	     41.88959582	      0.00000000	      0.00000000
      2.46500000	    -15.93196239	      0.63543062	     -8.32183312	     -0.95499157	      0.94097614	      0.29488404	     29.95405485	     -1.37654481	     -7.74855725	     44.32644374	      0.77364239	     22.46763464	      0.00000000	      0.00000000	     35.77976700	     -3.47675430	     -1.90926119	    123.84060410	      2.16142629	     -2.14888278	      0.00000000	      0.00000000	    -18.24708456	      1.58400696	     -0.35179688	     25.24622920	    -14.82038753	      0.48362887	    100.68202914	     45.95116780	      0.00000000	      0.00000000	    -23.57945708	    -15.78926344	     -8.25848743	     65.27300909	     41.88592377	      0.00000000	      0.00000000
